<svg xmlns="http://www.w3.org/2000/svg" width="148" height="38" viewBox="0 0 148 38">
  <defs>
    <linearGradient id="bgGrad_email_dark" x1="0" y1="0" x2="0" y2="1">
      <stop offset="0%" stop-color="rgba(255, 255, 255, 0.08)" />
      <stop offset="100%" stop-color="rgba(255, 255, 255, 0.02)" />
    </linearGradient>
    <linearGradient id="borderGrad_email_dark" x1="0" y1="0" x2="0" y2="1">
      <stop offset="0%" stop-color="rgba(255, 255, 255, 0.22)" />
      <stop offset="100%" stop-color="rgba(255, 255, 255, 0.06)" />
    </linearGradient>
    <filter id="glassShadow_email_dark" x="-10%" y="-10%" width="120%" height="130%">
      <feDropShadow dx="0" dy="2" stdDeviation="3" flood-color="rgba(0, 0, 0, 0.4)" />
    </filter>
  </defs>

  <!-- Button Base Glass Card -->
  <rect x="1" y="1" width="146" height="36" rx="9" fill="#161b22" filter="url(#glassShadow_email_dark)"/>
  <rect x="1" y="1" width="146" height="36" rx="9" fill="url(#bgGrad_email_dark)"/>
  <rect x="1" y="1" width="146" height="36" rx="9" fill="none" stroke="url(#borderGrad_email_dark)" stroke-width="1"/>
  
  <!-- Top Specular Glass Shine Line -->
  <line x1="12" y1="2" x2="136" y2="2" stroke="rgba(255, 255, 255, 0.25)" stroke-width="1" stroke-linecap="round"/>

  <!-- Icon Container -->
  <g transform="translate(14, 10.0)">
    <svg width="18" height="18" viewBox="0 0 24 24" fill="none">
  <path d="M3 5h18a2 2 0 0 1 2 2v10a2 2 0 0 1-2 2H3a2 2 0 0 1-2-2V7a2 2 0 0 1 2-2z" fill="#EA4335" fill-opacity="0.15" stroke="#EA4335" stroke-width="1.8"/>
  <path d="M3 7l9 6 9-6" fill="none" stroke="#EA4335" stroke-width="1.8" stroke-linecap="round" stroke-linejoin="round"/>
</svg>
  </g>

  <!-- Button Label -->
  <text x="42" y="23.5" fill="#f0f6fc" font-family="-apple-system, BlinkMacSystemFont, 'Segoe UI', Inter, Helvetica, Arial, sans-serif" font-size="12.5" font-weight="600" letter-spacing="0.2">Get in touch</text>

  <!-- Subtle Navigation Indicator -->
  <g transform="translate(126, 14.0)">
    <path d="M1 1 L5 5 L1 9" fill="none" stroke="#8b949e" stroke-width="1.5" stroke-linecap="round" stroke-linejoin="round"/>
  </g>
</svg>